PathFileType	4	(X/Y/Z)	C:/Users/beibeiliu/ov580/test_trc/User2\sequence.6_training_dense_right.trc
DataRate	CameraRate	NumFrames	NumMarkers	Units	OrigDataRate	OrigDataStartFrame	OrigNumFrames
120	120	10	19	mm	120	334	381
Frame#	Time	ThumbCMC			ThumbMCP			ThumbIP			ThumbTip			IndexMCP			IndexPIP			IndexTip			MiddleMCP			MiddlePIP			MiddleTip			RingMCP			RingPIP			RingTip			PinkyMCP			PinkyPIP			PinkyTip			BackHand1			BackHand2			BackHand3	
		X0	Y0	Z0	X1	Y1	Z1	X2	Y2	Z2	X3	Y3	Z3	X4	Y4	Z4	X5	Y5	Z5	X6	Y6	Z6	X7	Y7	Z7	X8	Y8	Z8	X9	Y9	Z9	X10	Y10	Z10	X11	Y11	Z11	X12	Y12	Z12	X13	Y13	Z13	X14	Y14	Z14	X15	Y15	Z15	X16	Y16	Z16	X17	Y17	Z17	X18	Y18	Z18	
333	2.775	47.9831	6.30049	108.013	25.0465	-23.8851	97.9355	12.2227	-53.1791	84.5297	21.0494	-75.4638	69.7189	49.106	-4.86017	25.3576	34.6889	-25.4959	5.45186	19.6002	-51.1377	29.896	58.0532	-39.8178	25.9575	35.2654	-68.7023	38.3113	34.3459	-63.728	77.4624	66.3731	-60.6678	39.5418	48.5592	-78.6468	58.7141	43.3965	-68.1679	89.9206	80.3655	-65.8537	55.0004	60.6015	-76.8502	74.9948	55.2684	-56.0363	106.068	106.71	-12.6122	64.1259	118.685	4.78008	93.383	84.3292	18.3323	78.154	
334	2.78333	45.4712	3.81985	108.067	23.978	-26.502	100.859	13.2857	-56.7518	83.3381	27.7132	-75.7471	68.3477	43.4312	-3.57491	28.7606	31.2865	-31.8209	11.3697	20.4982	-50.0792	42.6585	51.8694	-37.1678	27.151	34.2043	-65.1037	35.8773	32.7706	-62.7932	80.1932	67.909	-54.1219	40.3483	51.8253	-78.9747	57.0327	41.6692	-68.7623	89.1667	84.9139	-62.8574	54.6566	60.514	-76.3466	77.7681	55.3786	-60.0633	101.875	101.902	-8.09009	66.3014	112.98	10.9926	96.6114	79.2443	22.7441	84.0958	
335	2.79167	37.8666	3.37121	111.154	21.3309	-29.1258	102.292	10.8545	-59.3629	84.6189	23.4972	-78.0019	71.3068	37.6455	-6.07217	27.4545	30.6087	-31.9956	13.1243	16.6209	-50.2945	43.9326	54.3404	-36.1612	30.2383	36.6469	-68.2435	39.6664	35.1108	-65.0683	81.2876	63.3782	-53.3068	41.5941	48.6246	-77.3064	57.9659	44.4326	-71.1857	95.4863	83.3753	-58.0523	55.0465	63.6056	-75.9329	77.6889	53.7254	-60.9634	102.615	97.7119	-0.858432	69.3121	110.299	14.67	97.0843	71.35	23.5462	88.2877	
336	2.8	40.3535	0.354303	112.754	17.0706	-31.2201	107.543	15.1077	-60.912	85.7998	25.9816	-79.188	70.8051	36.7018	-4.21872	34.78	22.0445	-26.1702	12.5351	17.271	-55.539	37.0793	49.4871	-33.2472	30.9081	35.5764	-66.4837	36.7783	35.7571	-66.4296	81.7857	62.8446	-51.677	41.4853	52.9412	-77.7888	56.3339	46.0318	-73.142	91.4524	81.3026	-57.913	55.0837	62.9987	-74.1977	79.1329	56.0514	-56.6618	101.461	93.8829	-0.982641	67.3314	106.027	14.2583	94.5439	69.0564	23.3062	89.2412	
337	2.80833	35.1425	-1.36492	118.938	17.3698	-36.0515	106	13.9573	-64.0986	87.2047	27.6541	-82.2886	66.9573	26.3579	-1.09741	34.1646	18.8103	-23.6441	11.4203	9.8746	-53.76	21.9581	47.6469	-35.4758	29.5205	33.6104	-66.7245	36.8543	36.7064	-71.601	75.6034	66.4792	-50.3619	41.2688	55.915	-77.2948	55.1686	48.1348	-74.487	92.568	82.4811	-54.1848	53.389	63.5682	-72.3193	77.9448	58.6329	-55.6543	104.804	93.4669	3.26473	69.748	100.404	17.1663	99.2371	62.8641	20.9989	91.021	
338	2.81667	38.3227	-5.72192	122.324	18.2982	-40.8699	107.222	16.4297	-70.1267	85.9401	30.671	-83.347	66.0733	27.7375	-3.5049	40.2401	11.1238	-20.5601	12.4659	8.49473	-54.644	10.5451	45.9364	-34.7443	29.5843	37.7487	-69.8501	37.8803	36.0972	-72.6282	75.5733	66.2588	-49.5698	39.5382	55.911	-76.4706	54.8091	53.167	-77.247	89.8755	83.2659	-53.7373	52.8933	69.449	-73.142	77.3918	61.7638	-55.2449	101.891	87.2679	6.32621	72.0667	96.7746	18.527	99.2131	60.1635	22.3339	94.6409	
339	2.825	36.4356	-9.96397	118.731	25.7761	-42.5476	110.371	24.2221	-70.3374	84.0422	37.3719	-86.0849	61.544	28.2956	-4.72622	36.5433	16.1925	-16.9579	13.5766	10.6381	-50.1088	1.86189	49.457	-33.0532	28.2679	44.34	-66.7379	32.284	42.448	-74.0357	76.1342	70.3162	-47.7526	38.178	63.8026	-76.0877	50.9546	55.7141	-76.584	89.6238	89.497	-49.8092	52.0474	76.0555	-73.4427	71.0475	69.213	-57.7911	98.6843	90.0768	6.63561	71.6683	98.4505	21.7023	104.602	58.7747	22.4377	96.2306	
340	2.83333	42.7396	-11.7435	115.168	28.0571	-47.9244	102.268	27.445	-75.9066	80.8696	46.4044	-89.7395	60.4863	37.617	-5.6305	35.8459	34.2556	-23.306	4.22591	29.6057	-52.2804	-3.65003	60.8993	-35.9328	25.0058	53.2797	-70.6687	30.7658	52.7568	-76.6662	69.7942	81.0924	-47.8795	36.5595	72.3942	-78.3487	48.782	63.5968	-80.2489	81.161	98.0878	-51.7247	51.692	85.0394	-75.4591	70.0133	75.2494	-58.9015	99.4207	95.7953	4.30828	72.2511	104.573	17.1356	99.1274	64.4798	19.7012	89.7169	
341	2.84167	43.9499	-11.5031	106.604	39.0913	-46.2733	91.7604	38.7015	-76.5238	72.8953	60.0394	-91.0143	54.2762	55.7697	-9.91166	23.6493	54.0698	-30.7062	-3.5196	51.3112	-61.4708	-5.09715	72.839	-37.6286	21.3144	66.9409	-72.3098	25.0401	63.8321	-76.0068	67.2532	95.7358	-50.9343	36.025	85.615	-80.9057	46.9309	74.1349	-83.5777	78.8174	111.398	-59.0916	51.8597	94.2947	-77.8562	69	80.5847	-61.8879	93.7199	106.006	3.97127	71.3486	108.297	20.2575	99.6297	75.1475	16.6702	84.754	
342	2.85	50.3556	-12.688	96.3473	47.1335	-47.3622	85.2917	53.2291	-77.3654	65.9705	71.5608	-93.2171	50.9903	73.3893	-14.9974	20.5186	75.2706	-34.9832	-6.23487	69.7607	-71.0002	-1.41582	89.2571	-42.6383	15.8518	84.6997	-76.0112	22.0847	72.1981	-79.8315	60.076	107.265	-58.0547	32.6143	98.4152	-83.9063	43.4738	80.0671	-84.7743	76.6211	124.994	-60.8934	51.813	101.481	-80.3648	68.801	89.4304	-66.1863	95.1445	119.247	-0.250817	64.646	118.195	16.5707	97.6113	85.9134	17.3619	80.2657	
